<svg id="Logo" xmlns="http://www.w3.org/2000/svg" xmlns:xlink="http://www.w3.org/1999/xlink" width="25.736" height="25.736" viewBox="0 0 25.736 25.736">
  <defs>
    <clipPath id="clip-path">
      <path id="a" d="M25.436,10.528H13.167V15.5h7.062c-.658,3.158-3.411,4.972-7.062,4.972a7.678,7.678,0,0,1-7.781-7.6A7.781,7.781,0,0,1,18.015,6.96l3.83-3.743A13.282,13.282,0,0,0,13.167,0,12.983,12.983,0,0,0,0,12.868,12.983,12.983,0,0,0,13.167,25.736c6.584,0,12.569-4.679,12.569-12.868A10.445,10.445,0,0,0,25.436,10.528Z" fill="none"/>
    </clipPath>
  </defs>
  <g id="Clipped">
    <path id="a-5" data-name="a" d="M25.436,10.528H13.167V15.5h7.062c-.658,3.158-3.411,4.972-7.062,4.972a7.678,7.678,0,0,1-7.781-7.6A7.781,7.781,0,0,1,18.015,6.96l3.83-3.743A13.282,13.282,0,0,0,13.167,0,12.983,12.983,0,0,0,0,12.868,12.983,12.983,0,0,0,13.167,25.736c6.584,0,12.569-4.679,12.569-12.868A10.445,10.445,0,0,0,25.436,10.528Z" fill="none"/>
    <g id="Clipped-2" data-name="Clipped" clip-path="url(#clip-path)">
      <path id="Path" d="M0,15.207V0L10.175,7.6Z" transform="translate(-1.197 5.264)" fill="#fbbc05"/>
    </g>
  </g>
  <g id="Clipped-3" data-name="Clipped">
    <path id="a-6" data-name="a" d="M25.436,10.528H13.167V15.5h7.062c-.658,3.158-3.411,4.972-7.062,4.972a7.678,7.678,0,0,1-7.781-7.6A7.781,7.781,0,0,1,18.015,6.96l3.83-3.743A13.282,13.282,0,0,0,13.167,0,12.983,12.983,0,0,0,0,12.868,12.983,12.983,0,0,0,13.167,25.736c6.584,0,12.569-4.679,12.569-12.868A10.445,10.445,0,0,0,25.436,10.528Z" fill="none"/>
    <g id="Clipped-4" data-name="Clipped" clip-path="url(#clip-path)">
      <path id="Path-2" data-name="Path" d="M0,6.434l10.175,7.6,4.19-3.568L28.728,8.189V0H0Z" transform="translate(-1.197 -1.17)" fill="#ea4335"/>
    </g>
  </g>
  <g id="Clipped-5" data-name="Clipped">
    <path id="a-7" data-name="a" d="M25.436,10.528H13.167V15.5h7.062c-.658,3.158-3.411,4.972-7.062,4.972a7.678,7.678,0,0,1-7.781-7.6A7.781,7.781,0,0,1,18.015,6.96l3.83-3.743A13.282,13.282,0,0,0,13.167,0,12.983,12.983,0,0,0,0,12.868,12.983,12.983,0,0,0,13.167,25.736c6.584,0,12.569-4.679,12.569-12.868A10.445,10.445,0,0,0,25.436,10.528Z" fill="none"/>
    <g id="Clipped-6" data-name="Clipped" clip-path="url(#clip-path)">
      <path id="Path-3" data-name="Path" d="M0,21.641,17.955,8.189l4.728.585L28.728,0V28.075H0Z" transform="translate(-1.197 -1.17)" fill="#34a853"/>
    </g>
  </g>
  <g id="Clipped-7" data-name="Clipped">
    <path id="a-8" data-name="a" d="M25.436,10.528H13.167V15.5h7.062c-.658,3.158-3.411,4.972-7.062,4.972a7.678,7.678,0,0,1-7.781-7.6A7.781,7.781,0,0,1,18.015,6.96l3.83-3.743A13.282,13.282,0,0,0,13.167,0,12.983,12.983,0,0,0,0,12.868,12.983,12.983,0,0,0,13.167,25.736c6.584,0,12.569-4.679,12.569-12.868A10.445,10.445,0,0,0,25.436,10.528Z" fill="none"/>
    <g id="Clipped-8" data-name="Clipped" clip-path="url(#clip-path)">
      <path id="Path-4" data-name="Path" d="M20.948,21.641,2.394,7.6,0,5.849,20.948,0Z" transform="translate(6.584 5.264)" fill="#4285f4"/>
    </g>
  </g>
</svg>
